Coordinates
version=1
nRows=4
nColumns=63
inDegrees=yes

Units are S.I. units (second, meters, Newtons, ...)
If the header above contains a line with 'inDegrees', this indicates whether rotational values are in degrees (yes) or radians (no).

endheader
time	pelvis_tilt	pelvis_list	pelvis_rotation	pelvis_tx	pelvis_ty	pelvis_tz	hip_flexion_r	hip_adduction_r	hip_rotation_r	knee_angle_r	knee_angle_r_beta	ankle_angle_r	subtalar_angle_r	mtp_angle_r	hip_flexion_l	hip_adduction_l	hip_rotation_l	knee_angle_l	knee_angle_l_beta	ankle_angle_l	subtalar_angle_l	mtp_angle_l	L5_S1_Flex_Ext	L5_S1_Lat_Bending	L5_S1_axial_rotation	L4_L5_Flex_Ext	L4_L5_Lat_Bending	L4_L5_axial_rotation	L3_L4_Flex_Ext	L3_L4_Lat_Bending	L3_L4_axial_rotation	L2_L3_Flex_Ext	L2_L3_Lat_Bending	L2_L3_axial_rotation	L1_L2_Flex_Ext	L1_L2_Lat_Bending	L1_L2_axial_rotation	L1_T12_Flex_Ext	L1_T12_Lat_Bending	L1_T12_axial_rotation	Abs_r3	Abs_r2	Abs_r1	Abs_t1	Abs_t2	neck_flexion	neck_bending	neck_rotation	arm_flex_r	arm_add_r	arm_rot_r	elbow_flex_r	pro_sup_r	wrist_flex_r	wrist_dev_r	arm_flex_l	arm_add_l	arm_rot_l	elbow_flex_l	pro_sup_l	wrist_flex_l	wrist_dev_l
     14.74576271	     -0.46728383	    -11.77742884	     90.44775398	      0.14653117	      0.83843745	      0.53576149	     12.86526416	     -0.21378882	     11.85338234	      1.51929824	      0.02651676	     26.73458614	    -10.02412741	      0.00000000	     15.94493226	     -0.15485125	      3.78403554	      9.01346883	      0.15731471	     29.73458095	     -0.48031864	      0.00000000	     -0.09559446	      0.46630954	     -0.18198796	     -0.17752846	      0.62019168	     -0.19336220	     -0.15705213	      1.13378501	     -0.19336220	     -0.10925490	      1.13378501	     -0.15923946	     -0.08876901	      0.95089841	     -0.14786521	     -0.05462267	      0.72231347	     -0.13649097	     -0.68282163	      5.27498674	     -1.01216242	      0.00000000	      0.00000000	     -3.20566472	      1.54308529	     16.55224413	    108.06390365	    -15.28032729	     48.12905436	     66.86975338	     87.45000697	    -11.80681739	     -4.96624235	    110.63156644	    -25.64539987	     49.73685543	     75.14175563	     82.49458364	     -9.62964255	    -10.36972041
     14.76271186	     -0.52625655	    -11.81669409	     90.31019190	      0.14658822	      0.83860458	      0.53502600	     12.84205737	     -0.24074630	     11.95872267	      1.53322478	      0.02675982	     26.87348905	     -9.86908009	      0.00000000	     15.87188347	     -0.13594625	      3.84469383	      8.94769697	      0.15616677	     29.41734702	     -0.78019936	      0.00000000	     -0.05461550	      0.46381462	     -0.27716182	     -0.10142644	      0.61687344	     -0.29448444	     -0.08972780	      1.12771886	     -0.29448444	     -0.06242005	      1.12771886	     -0.24251659	     -0.05071595	      0.94581077	     -0.22519398	     -0.03120730	      0.71844884	     -0.20787137	     -0.39011304	      5.24676371	     -1.54149091	      0.00000000	      0.00000000	     -4.26382694	      1.88987039	     18.40532957	    107.30362703	    -14.67335098	     47.95793726	     66.82756260	     87.23193180	    -11.56578199	     -4.79845569	    110.19206391	    -26.63184541	     50.11251211	     75.82706752	     83.47145456	     -9.67901319	    -11.34114691
     14.77966102	     -0.49603340	    -11.85410294	     90.29309596	      0.14629863	      0.83863693	      0.53414053	     12.77508486	     -0.21635876	     11.75292328	      1.53725796	      0.02683021	     27.05531343	     -9.49996510	      0.00000000	     15.78388583	     -0.10467174	      4.87366906	      8.86213763	      0.15467348	     28.90872083	     -2.19528426	      0.00000000	     -0.00473147	      0.48938959	     -0.45094453	     -0.00878681	      0.65088816	     -0.47912856	     -0.00777333	      1.18990185	     -0.47912856	     -0.00540760	      1.18990185	     -0.39457646	     -0.00439364	      0.99796326	     -0.36639243	     -0.00270356	      0.75806448	     -0.33820840	     -0.03379642	      5.53607294	     -2.50801818	      0.00000000	      0.00000000	     -5.82717144	      1.59439004	     21.34656880	    106.40544666	    -13.61557105	     47.63871542	     67.01345139	     86.99288898	    -10.91486542	     -4.46932037	    109.35681020	    -28.51089620	     50.03953821	     77.65413840	     84.97360131	     -9.69784011	    -11.27540712
     14.79661017	     -0.53626379	    -11.86809612	     90.22137438	      0.14612903	      0.83856067	      0.53333624	     12.70800454	     -0.24587267	     11.69559103	      1.57885945	      0.02755630	     27.16574392	     -9.29389869	      0.00000000	     15.64280721	      0.00715007	      6.10793952	      8.68482974	      0.15157887	     28.36326351	     -3.98639481	      0.00000000	      0.04176255	      0.51026205	     -0.62767753	      0.07755724	      0.67864853	     -0.66690737	      0.06861170	      1.24065116	     -0.66690737	      0.04773042	      1.24065116	     -0.54921784	      0.03878071	      1.04052638	     -0.50998799	      0.02386312	      0.79039592	     -0.47075815	      0.29830574	      5.77218641	     -3.49095411	      0.00000000	      0.00000000	     -7.51061589	      1.08824224	     24.43424695	    105.19862513	    -12.75293731	     47.09158445	     68.06911352	     86.37034072	    -10.61871647	     -4.02672755	    108.36859285	    -30.68385032	     49.86703303	     80.10966814	     86.25777834	    -10.27113227	    -10.67433666
